<svg xmlns="http://www.w3.org/2000/svg" viewBox="0 0 32 32">
  <circle cx="16" cy="16" r="14" fill="#0f1623" stroke="#22d3ee" stroke-width="1.5"/>
  <path d="M16 4 L18 4.5 L19 6 L21 6.5 L22.5 5.5 L24 6.5 L24.5 8.5 L26.5 9.5 L27 11.5 L25.5 13 L26 15 L28 16 L26 17 L26.5 19 L27 21 L25 22 L24.5 24 L22.5 24.5 L21 26 L19 26 L18 27.5 L16 28 L14 27.5 L13 26 L11 26 L9.5 24.5 L7.5 24 L7 22 L5 21 L5 19 L5.5 17 L4 16 L5.5 15 L5 13 L5.5 11.5 L7.5 9.5 L8 8 L9.5 6.5 L11.5 6 L13 4.5 L14 4.5Z" fill="none" stroke="#22d3ee" stroke-width="0.8" opacity="0.5"/>
  <circle cx="16" cy="16" r="6" fill="none" stroke="#34d399" stroke-width="1"/>
  <path d="M17 10 L14 17 L18 17 L15 24" fill="none" stroke="#22d3ee" stroke-width="2" stroke-linecap="round" stroke-linejoin="round"/>
</svg>
